<svg width="1284" height="1664" viewBox="0 0 1284 1664" fill="none" xmlns="http://www.w3.org/2000/svg">
<path d="M634.6 2.06647C632.867 2.86647 628.333 8.99981 624.333 15.5331C612.6 35.7998 479.667 266.066 479.667 266.333C479.667 266.6 485.8 264.333 493.267 261.4C589.4 224.2 699.533 225.133 798.067 264.2C801.933 265.8 804.867 266.6 804.6 266.066C804.2 265.4 770.6 207.133 729.8 136.333C689 65.5332 653.8 6.06647 651.533 3.93314C647.267 0.0664737 640.333 -0.733526 634.6 2.06647Z" fill="#E4562E"/>
<path d="M812.6 62.1999C807 76.3333 805.667 84.0666 805.667 103C805.667 126.467 809.933 142.067 821.133 161.4C827.933 172.733 849 193.133 861 199.933C901.8 222.733 952.467 218.333 988.067 189C1001.8 177.667 1019.27 154.067 1016.2 151C1015.53 150.333 970.2 128.333 915.4 101.933L815.8 54.0666L812.6 62.1999Z" fill="#E4562E"/>
<path d="M361.666 103C287.8 138.733 263 151.267 263.133 152.867C263.533 156.733 272.066 169.667 280.2 178.467C294.2 193.8 313.533 205.4 335 211.133C350.333 215.267 374.733 215.267 390.333 211.133C454.6 194.067 489.933 126.867 467.4 64.3334C465.666 59.4001 463.533 55.5334 462.333 55.4001C461.266 55.2667 415.933 76.7334 361.666 103Z" fill="#E4562E"/>
<path d="M130.333 245.4C122.333 253.4 119.666 245.133 180.066 399C210.333 476.333 235.666 540.867 236.2 542.333C237 544.333 239 539.667 244.333 523.667C276.866 425 340.066 345.933 429.533 292.2C435.533 288.6 439.4 285.667 438.2 285.667C437 285.667 370.466 275.8 290.2 263.666C209.933 251.533 142.066 241.666 139.266 241.666C135.4 241.666 133.133 242.6 130.333 245.4Z" fill="#E4562E"/>
<path d="M993 264.2C912.733 276.6 846.733 286.733 846.466 286.867C846.2 286.867 852.466 290.867 860.466 295.667C890.733 313.8 926.466 343.4 951.266 370.867C993 417.133 1021.13 465.933 1040.2 524.6L1047 545.4L1102.33 404.6C1140.07 308.467 1157.8 261.667 1158.07 257.533C1158.47 252.2 1158.07 250.733 1154.73 247C1151.67 243.667 1149.67 242.6 1145 242.333C1141.67 242.067 1073.8 251.8 993 264.2Z" fill="#E4562E"/>
<path d="M35.5331 520.6C13.7997 615.933 11.1331 629.133 12.8664 630.333C14.0664 631.133 23.9331 631.667 34.9997 631.667C58.5998 631.667 69.3998 629.133 87.5331 619.533C115.8 604.6 133.8 582.467 143.133 551.4C146.2 541.266 146.733 537.133 146.733 521.666C146.866 499.666 144.866 490.2 135.666 471.666C125 449.8 108.866 432.866 88.8664 422.333C79.2664 417.266 66.0664 412.333 62.4664 412.333C60.7331 412.333 55.6664 432.466 35.5331 520.6Z" fill="#E4562E"/>
<path d="M1215 414.866C1179.13 427.666 1153.27 455.933 1142.87 493.666C1139.53 505.8 1139.53 534.733 1142.87 547.666C1152.73 586.467 1183.13 617.533 1221.93 628.6C1230.47 631.133 1235.67 631.667 1251 631.667C1261.27 631.667 1271.27 631.267 1273.13 630.733L1276.47 629.8L1251.8 521C1223.93 399 1227.93 410.333 1215 414.866Z" fill="#E4562E"/>
<path d="M1056.47 594.6C1065.67 655.8 1059.13 725 1038.6 785.667C1025 825.533 1002.87 868.467 980.2 898.6C976.2 903.933 973.533 908.333 974.2 908.333C976.466 908.333 1273.53 816.467 1276.73 814.733C1282.73 811.667 1285.67 801.133 1282.33 795C1281.27 793.133 1083.13 608.333 1057.53 585.4L1054.73 582.867L1056.47 594.6Z" fill="#E4562E"/>
<path d="M116.333 688.2C45.9331 753.4 3.39974 793.8 1.93308 796.733C-0.0669219 800.733 -0.200255 802.467 0.866411 806.733C1.66641 809.533 3.39974 813 4.86641 814.2C7.26641 816.333 308.466 910.067 310.733 909.267C311.266 909.133 307.8 903.667 303 897.133C261.533 841 235.266 772.867 226.066 697.667C223.533 677 223.933 622.467 226.733 601.8C228.066 592.733 228.866 585.133 228.733 584.867C228.466 584.6 177.933 631.133 116.333 688.2Z" fill="#E4562E"/>
<path d="M324.2 931.133C324.733 935.133 330.2 1006.73 336.333 1090.33C342.6 1173.93 348.066 1243.4 348.466 1244.6C349.8 1249 356.866 1253.67 362.333 1253.67C368.333 1253.67 354.333 1262.87 524.066 1147.13C584.733 1105.8 634.2 1071.8 634.066 1071.53C633.8 1071.4 625 1070.6 614.333 1069.8C556.466 1065.27 509.533 1052.73 459 1028.33C414.333 1006.73 376.466 979 339.933 941L323.4 923.933L324.2 931.133Z" fill="#E4562E"/>
<path d="M939 946.333C901.8 983.8 862.466 1011.53 816.333 1032.6C767.533 1055 726.333 1065.13 661.4 1070.6L649.133 1071.67L781.8 1162.2C884.2 1231.93 915.666 1252.73 919.533 1253.27C925.133 1253.93 932.2 1250.07 934.333 1245.4C935.4 1243 959.933 926.6 959.133 926.2C959.133 926.2 950.066 935.267 939 946.333Z" fill="#E4562E"/>
<path d="M138.333 938.2C123.4 941.533 108.467 948.067 97.3998 956.2L91.6665 960.333L160.467 1046.6C198.333 1094.2 229.933 1133.53 230.467 1134.33C232.2 1136.07 246.6 1121.53 254.2 1110.2C284.467 1065.27 277.933 1003.93 238.867 966.867C216.867 946.067 191.533 936.2 161.133 936.467C152.6 936.6 142.333 937.4 138.333 938.2Z" fill="#E4562E"/>
<path d="M1117.13 937.8C1092.47 942.6 1068.73 956.467 1053.4 975C1017.93 1017.67 1017.8 1077.27 1053 1119.93C1057.27 1125.13 1062.6 1130.6 1064.73 1132.2L1068.87 1135L1115.4 1076.73C1201.13 969.267 1207.67 961 1207.67 960.2C1207.67 958.467 1190.47 948.067 1181.4 944.333C1176.47 942.2 1167.67 939.533 1162.07 938.467C1151 936.2 1127.13 935.8 1117.13 937.8Z" fill="#E4562E"/>
<path d="M617.666 1163.67C590.466 1169.67 565.133 1187 549.8 1210.07C538.466 1227.13 532.6 1243.27 530.866 1262.47L529.933 1272.33H642.2H754.6L753.666 1263.27C748.466 1214.33 715.133 1175.53 668.6 1164.33C655.666 1161.27 630.333 1160.87 617.666 1163.67Z" fill="#E4562E"/>
<path d="M113.933 1479.4L94.333 1484.73L94.5997 1572.2L94.9997 1659.67L116.733 1660.07L138.333 1660.33V1627V1593.67H185.666H233L233.266 1626.6L233.666 1659.67L255.4 1660.07L277 1660.33V1569V1477.67H255H233V1516.33V1555H185.666H138.333V1514.33C138.333 1476.47 138.2 1473.67 136.066 1473.8C134.733 1473.93 124.866 1476.47 113.933 1479.4Z" fill="#E4562E"/>
<path d="M798.066 1479.27L778.333 1484.73V1542.2C778.333 1605.53 778.6 1608.33 786.466 1623.13C802.2 1652.47 842.866 1667.93 891.266 1663.13C929.666 1659.27 954.466 1645.4 966.333 1621.27C969.4 1614.73 972.2 1606.87 973 1601.67C973.666 1596.87 974.333 1567.4 974.333 1535.27V1477.67H952.333H930.466L930.066 1538.6L929.666 1599.67L925.933 1605.93C918.866 1618.07 907.4 1622.87 882.2 1623.93C849.266 1625.4 831.533 1618.87 824.066 1602.33C821.933 1597.53 821.666 1591.4 821.266 1535.27C821 1488.33 820.466 1473.67 819.266 1473.8C818.333 1473.8 808.866 1476.33 798.066 1479.27Z" fill="#E4562E"/>
<path d="M311.933 1568.6L312.333 1659.67L394.466 1660.07L476.6 1660.33L482.066 1642.07C485.133 1631.93 487.666 1623.27 487.666 1622.6C487.666 1622.07 457.933 1621.67 421.666 1621.67H355.666V1605V1588.33H412.333H469V1569V1549.67H412.333H355.666V1533V1516.33H416.2H476.866L480.333 1504.6C482.2 1498.2 484.733 1490.33 485.8 1487.13C486.733 1483.8 487.666 1480.33 487.666 1479.4C487.666 1477.93 471.666 1477.67 399.666 1477.67H311.666L311.933 1568.6Z" fill="#E4562E"/>
<path d="M514.333 1569V1660.33L594.466 1660.07L674.733 1659.67L680.333 1641L686.066 1622.33L622.2 1621.93L558.333 1621.67V1549.67V1477.67H536.333H514.333V1569Z" fill="#E4562E"/>
<path d="M705 1569V1660.33L726.733 1660.07L748.333 1659.67L748.733 1568.6L749 1477.67H727H705V1569Z" fill="#E4562E"/>
<path d="M1045.4 1479.13C1019.67 1483.4 1001.27 1500.6 996.867 1524.6C992.067 1550.6 1008.33 1575.53 1036.07 1584.73C1043.53 1587.13 1048.73 1587.53 1088.33 1588.2C1119.67 1588.73 1133.13 1589.53 1135.27 1590.6C1140.47 1593.67 1143.67 1599 1143.67 1604.87C1143.67 1611.4 1141.13 1615.4 1135.27 1618.73C1131.4 1620.73 1124.73 1621.13 1069.13 1621.67L1007.27 1622.33L1002.2 1639.53C999.267 1649 997 1657.67 997 1658.6C997 1660.2 1008.47 1660.47 1068.73 1660.07C1138.47 1659.67 1140.6 1659.53 1149.13 1656.6C1160.07 1653 1172.47 1645 1177.4 1638.6C1179.53 1635.8 1182.73 1630.2 1184.73 1625.93C1187.93 1619.27 1188.33 1616.73 1188.33 1605C1188.33 1592.73 1187.93 1590.87 1184.07 1582.6C1178.87 1571.67 1169.8 1562.47 1159.13 1557.27C1145.8 1550.73 1137.4 1549.67 1095.27 1549.67C1053.53 1549.67 1050.6 1549.27 1045.27 1542.33C1041.93 1538.2 1041.4 1530.87 1044.07 1525.67C1044.87 1523.8 1048.33 1521 1051.67 1519.27C1057.53 1516.33 1058.07 1516.33 1115.67 1516.33H1173.8L1178.87 1499.27C1181.67 1489.93 1184.33 1481.27 1184.73 1479.93C1185.27 1477.8 1181.53 1477.67 1118.87 1477.8C1082.2 1477.93 1049.27 1478.47 1045.4 1479.13Z" fill="#E4562E"/>
</svg>
